<svg width="870" height="474" viewBox="0 0 870 474" fill="none" xmlns="http://www.w3.org/2000/svg">
<path fill-rule="evenodd" clip-rule="evenodd" d="M794.562 293.18C814.771 293.18 830.744 297.625 842.22 306.783C853.73 315.969 860.443 329.677 862.547 347.615L862.809 349.849H831.798L831.59 348.082C830.327 337.346 826.686 329.903 820.954 325.356L820.938 325.344L820.922 325.33C815.144 320.549 806.257 317.987 793.912 317.987C782.631 317.987 774.608 320.232 769.484 324.37L769.478 324.376C764.55 328.318 762.101 333.479 762.101 340.046C762.101 343.901 762.861 347.073 764.287 349.641C765.703 352.189 767.837 354.253 770.771 355.823C776.626 358.745 787.158 361.842 802.542 365.071L805.688 365.72L805.699 365.723C816.117 367.893 824.322 369.966 830.279 371.95C836.515 373.738 842.929 376.621 849.518 380.57L850.152 380.938C856.662 384.772 861.514 389.927 864.638 396.396C867.839 403.028 869.388 411.149 869.388 420.674C869.388 437.713 863.069 451.023 850.363 460.326L850.344 460.34C837.769 469.321 821.283 473.717 801.064 473.717C777.817 473.717 759.436 468.564 746.175 458.001L746.146 457.978C733.079 447.164 725.949 431.875 724.618 412.357L724.473 410.221H755.369L755.583 411.979C757.052 424.045 761.626 432.852 769.13 438.683C776.676 444.546 787.452 447.609 801.715 447.609C814.749 447.609 823.958 445.14 829.726 440.569C835.759 435.742 838.728 429.595 838.729 421.975C838.729 413.618 835.817 407.951 830.245 404.492C824.288 400.794 813.112 397.163 796.431 393.697L796.421 393.694L796.41 393.692C789.477 392.176 783.955 390.985 779.845 390.119L779.783 390.106L779.722 390.09C775.797 389 771.01 387.585 765.364 385.848L765.298 385.826C759.577 383.846 754.959 381.72 751.513 379.423L751.448 379.38L751.387 379.331C748.279 376.89 745.077 374.017 741.78 370.72C738.284 367.223 735.741 362.928 734.136 357.883L734.123 357.843L734.112 357.803C732.757 352.835 732.091 347.344 732.091 341.346C732.091 326.485 737.531 314.614 748.455 305.966L748.463 305.96L748.471 305.953C759.566 297.349 775.016 293.18 794.562 293.18ZM799.051 449.572L799.16 449.574C799.08 449.572 799 449.57 798.92 449.567C798.964 449.569 799.007 449.571 799.051 449.572ZM753.92 414.521C753.949 414.704 753.982 414.886 754.013 415.067C753.98 414.874 753.946 414.68 753.915 414.485L753.92 414.521ZM734.622 333.734C734.596 333.91 734.572 334.087 734.548 334.264C734.577 334.048 734.608 333.833 734.64 333.619L734.622 333.734Z" fill="black"/>
<path fill-rule="evenodd" clip-rule="evenodd" d="M383.888 292.529C408.898 292.529 429.085 301.189 444.241 318.574C459.336 335.889 466.842 357.398 466.842 382.961C466.842 408.523 459.336 430.032 444.241 447.347C429.085 464.732 408.898 473.392 383.888 473.392C358.878 473.392 338.588 464.733 323.219 447.358L323.215 447.353L323.21 447.347C308.115 430.032 300.609 408.524 300.609 382.961C300.609 357.398 308.115 335.889 323.21 318.574L323.215 318.568L323.219 318.563C338.588 301.189 358.878 292.529 383.888 292.529ZM383.888 318.312C367.111 318.312 354.296 324.352 345.18 336.358L345.181 336.359C336.171 348.512 331.594 363.998 331.594 382.961C331.594 401.913 336.165 417.391 345.165 429.541C354.277 441.338 367.094 447.284 383.888 447.284C400.686 447.284 413.388 441.336 422.28 429.548C431.284 417.397 435.857 401.917 435.857 382.961C435.857 363.784 431.174 348.315 421.969 336.391L421.945 336.359C413.042 324.35 400.446 318.312 383.888 318.312ZM322.724 443.666C322.792 443.751 322.862 443.834 322.932 443.919C322.852 443.822 322.772 443.725 322.693 443.628L322.724 443.666ZM321.447 442.06C321.514 442.146 321.583 442.231 321.65 442.317C321.566 442.21 321.481 442.103 321.397 441.995L321.447 442.06ZM445.905 442.184C445.938 442.142 445.971 442.101 446.003 442.06L446.053 441.995C446.004 442.058 445.954 442.121 445.905 442.184ZM345.88 433.535C346.124 433.809 346.372 434.078 346.62 434.345C346.359 434.064 346.099 433.781 345.843 433.493L345.88 433.535ZM344.94 432.449C345.001 432.521 345.063 432.592 345.124 432.664C345.056 432.584 344.987 432.504 344.919 432.423L344.94 432.449Z" fill="black"/>
<path d="M561.655 294.805C565.782 294.805 569.614 295.493 573.127 296.898L574.385 297.401V326.114H571.085L570.776 326.012C567.784 325.014 564.108 324.488 559.705 324.488C546.8 324.488 535.82 329.045 526.657 338.208L526.648 338.216L526.641 338.225C517.543 347.115 512.938 358.818 512.938 373.532V468.84H482.604V296.756H512.938V321.072C518.031 314.02 524.273 308.179 531.66 303.562C540.656 297.722 550.671 294.805 561.655 294.805Z" fill="black"/>
<path fill-rule="evenodd" clip-rule="evenodd" d="M140.546 162.485L140.582 162.54L140.614 162.598L154.43 187.04V0H185.739V232.09L226.753 384.007L226.762 384.038L226.769 384.069L234.527 416.976C237.511 403.617 240.023 392.855 242.063 384.693L242.066 384.683L264.592 296.663H296.914L249.1 468.457H218.074L175.095 303.103L175.085 303.063L168.29 274.577C165.662 285.97 163.258 295.492 161.075 303.134L161.076 303.135L115.153 468.457H82.8242L22.7969 236.457H1.65499e-06V0H33.9658L140.546 162.485ZM31.3096 232H56.3594L93.4688 384.706L93.4736 384.725L93.4775 384.743L100.641 416.845C103.664 403.639 106.375 392.686 108.779 383.995L108.78 383.991L150.737 233.399L45.5205 73.6504L45.4961 73.6123L45.4727 73.5732L31.3096 49.79V232Z" fill="black"/>
<path d="M569.731 172.391L569.735 172.402L569.739 172.415L579.174 202.663C582.674 191.007 585.846 180.911 588.69 172.378L624.583 64.373H656.181L595.873 232H617.875V365.484L688.863 296.373H728.213L661.396 359.14L734.716 468.457H699L640.223 378.847L617.875 400.019V468.457H587.541V236.457H562.185L501.938 64.373H534.494L569.731 172.391Z" fill="black"/>
<path fill-rule="evenodd" clip-rule="evenodd" d="M28.0166 424C29.0698 424 29.9959 423.998 30.7568 424.068C31.5476 424.141 32.3509 424.304 33.1152 424.749C34.06 425.299 34.8208 426.112 35.3232 427.08C35.723 427.85 35.87 428.655 35.9365 429.464C36.0012 430.251 36 431.213 36 432.334V459.666C36 460.787 36.0012 461.749 35.9365 462.536C35.87 463.345 35.723 464.15 35.3232 464.92C34.8208 465.888 34.06 466.701 33.1152 467.251C32.3509 467.696 31.5476 467.859 30.7568 467.932C29.9959 468.002 29.0698 468 28.0166 468H7.9834C6.9302 468 6.00409 468.002 5.24317 467.932C4.45237 467.859 3.64912 467.696 2.88477 467.251C1.93999 466.701 1.17925 465.888 0.676759 464.92C0.277025 464.15 0.130012 463.345 0.0634782 462.536C-0.00122964 461.749 1.65499e-06 460.787 1.65499e-06 459.666V432.334C1.65499e-06 431.213 -0.00122952 430.251 0.0634782 429.464C0.130012 428.655 0.277025 427.85 0.676759 427.08C1.17925 426.112 1.93999 425.299 2.88477 424.749C3.64912 424.304 4.45237 424.141 5.24317 424.068C6.00409 423.998 6.9302 424 7.9834 424H28.0166ZM2.71192 464.43C2.71429 464.433 2.71734 464.436 2.71973 464.439C2.67263 464.372 2.62698 464.304 2.58399 464.233L2.71192 464.43ZM2.01856 461.674C2.01895 461.686 2.0201 461.697 2.02051 461.709C2.01489 461.547 2.00969 461.376 2.00684 461.195L2.01856 461.674Z" fill="black"/>
<path fill-rule="evenodd" clip-rule="evenodd" d="M732.397 60.1465C757.631 60.1465 777.323 69.033 791.19 86.9209C804.981 104.493 811.774 127.838 811.774 156.755V158.755H681.879C683.213 175.206 688.237 188.584 696.849 199.014L697.278 199.505C706.345 209.739 718.521 214.901 734.022 214.901C746.295 214.901 755.999 212.099 763.312 206.679C770.612 201.267 775.737 193.092 778.576 181.945L778.96 180.438H808.679L808.153 182.863C804.169 201.234 795.718 215.646 782.732 225.945L782.724 225.952L782.716 225.959C769.728 236.036 753.449 241.009 734.022 241.009C708.6 241.009 688.193 232.472 673.027 215.299L673.019 215.289L673.01 215.278C658.134 197.96 650.744 176.345 650.744 150.578C650.744 125.227 658.253 103.828 673.345 86.5166L673.346 86.5146C688.693 68.9427 708.432 60.1465 732.397 60.1465ZM734.022 239.009C734.609 239.009 735.193 239.004 735.773 238.995L735.802 238.994C735.212 239.004 734.619 239.009 734.022 239.009ZM698.104 203.283C698.204 203.382 698.306 203.479 698.406 203.576C698.291 203.464 698.175 203.352 698.061 203.239L698.104 203.283ZM732.397 84.9541C717.936 84.9541 706.587 89.7495 698.128 99.2402C690.181 108.387 685.01 120.245 682.695 134.923H779.36C778.243 119.344 773.735 107.298 766.013 98.5859C758.006 89.5529 746.89 84.9541 732.397 84.9541ZM787.69 85.7744C788.345 86.549 788.987 87.3426 789.617 88.1553C788.997 87.3553 788.366 86.5736 787.722 85.8105L787.69 85.7744Z" fill="black"/>
<path fill-rule="evenodd" clip-rule="evenodd" d="M282.366 61.1211C303.305 61.1211 319.382 65.6096 330.241 74.9336C341.159 84.3077 346.463 98.2721 346.463 116.439V196.418C346.463 203.655 347.652 208.263 349.585 210.752C351.429 212.871 355.163 213.823 361.917 212.346L362.128 212.3H365.319V234.835L364.062 235.338C359.466 237.177 354.442 238.082 349.015 238.082C340.34 238.082 333.241 235.909 327.955 231.336C323.498 227.48 320.509 222.073 318.873 215.276C304.882 231.557 286.481 239.708 263.835 239.708C246.823 239.708 232.713 235.616 221.665 227.274C210.469 218.82 204.94 206.59 204.939 190.892C204.939 182.892 206.161 175.895 208.674 169.955L208.681 169.938L208.688 169.922C211.37 163.889 214.759 158.99 218.896 155.3C223.032 151.393 228.579 148.135 235.447 145.473L236.762 144.946C243.292 142.367 249.559 140.45 255.559 139.204C261.918 137.669 270 136.143 279.783 134.621L279.8 134.618L279.817 134.616C286.051 133.756 290.448 133.112 293.027 132.684C295.808 132.041 299.335 131.187 303.609 130.118C307.863 128.839 310.541 127.533 311.935 126.313C313.464 124.975 314.962 123.102 316.401 120.634C317.714 118.383 318.404 115.706 318.404 112.538C318.404 103.533 315.268 96.9135 309.134 92.3623L309.105 92.3408L309.076 92.3174C303.054 87.4994 294.349 84.9532 282.691 84.9531C269.416 84.9531 259.7 87.983 253.211 93.7178C246.754 99.4241 243.171 108.094 242.75 120.086L242.683 122.017H213.341L213.394 119.966C213.839 102.372 219.876 88.0717 231.592 77.2568L231.599 77.251L231.606 77.2441C243.582 66.398 260.604 61.1211 282.366 61.1211ZM347.471 236.058L348.237 236.076C347.73 236.068 347.229 236.051 346.734 236.027C346.978 236.039 347.224 236.05 347.471 236.058ZM318.729 147.188C310.386 151.574 298.347 155.176 282.757 158.064L282.758 158.065C276.264 159.364 271.196 160.442 267.544 161.302L267.489 161.314L267.434 161.324C263.931 161.942 259.845 163.192 255.163 165.107L255.127 165.122L255.09 165.136C250.441 166.826 247.136 168.667 245.022 170.588C242.877 172.538 240.96 175.231 239.31 178.738L239.3 178.76L239.289 178.781C237.722 181.915 236.899 185.713 236.899 190.241C236.899 198.89 239.629 205.067 244.831 209.15C250.125 213.307 258.298 215.551 269.687 215.551C285.547 215.551 297.537 211.016 305.952 202.19C314.541 192.967 318.729 183.039 318.729 172.359V147.188ZM208.03 202.068C208.037 202.101 208.044 202.133 208.051 202.165C208.011 201.977 207.973 201.789 207.936 201.6L208.03 202.068ZM207.483 198.937C207.511 199.132 207.54 199.327 207.57 199.521C207.513 199.149 207.46 198.775 207.41 198.397L207.483 198.937ZM207 193.661C207.011 193.902 207.024 194.143 207.037 194.382C207.011 193.925 206.99 193.465 206.975 193.001L207 193.661ZM236.891 179.218C236.869 179.269 236.85 179.321 236.829 179.373C236.856 179.307 236.882 179.24 236.909 179.175L236.891 179.218ZM265.679 159.629C265.524 159.662 265.369 159.696 265.213 159.731C265.394 159.691 265.575 159.651 265.754 159.613L265.679 159.629ZM312.354 128.512C312.417 128.468 312.48 128.427 312.541 128.383L312.564 128.365C312.496 128.415 312.425 128.462 312.354 128.512ZM317.572 122.562C317.326 122.957 317.075 123.337 316.823 123.704C317.069 123.346 317.314 122.976 317.555 122.592L317.572 122.562ZM286.55 83.0498C286.358 83.0401 286.166 83.0297 285.973 83.0215L285.905 83.0195C286.121 83.0286 286.336 83.0389 286.55 83.0498ZM328.938 76.4512C329.325 76.7831 329.704 77.1215 330.076 77.4658C329.706 77.1237 329.33 76.7869 328.946 76.457L328.938 76.4512Z" fill="black"/>
<path fill-rule="evenodd" clip-rule="evenodd" d="M415.062 64.373H447.573V89.8301H415.062V197.068C415.062 201.919 416.368 205.201 418.645 207.303C420.952 209.432 424.603 210.674 429.968 210.674C434.52 210.674 438.967 209.951 443.315 208.501L443.623 208.398H446.923V234.776L445.338 235.113C438.056 236.658 430.873 237.433 423.79 237.433C411.187 237.433 401.361 234.674 394.674 228.808C387.937 222.898 384.728 214.139 384.728 202.921V89.8301H360.344V64.373H384.728V11.3789H415.062V64.373ZM413.87 203.149C413.901 203.252 413.934 203.353 413.967 203.454C413.925 203.326 413.885 203.196 413.846 203.065L413.87 203.149ZM413.475 201.564C413.485 201.618 413.498 201.672 413.509 201.726C413.493 201.651 413.477 201.576 413.462 201.5L413.475 201.564ZM413.21 199.857C413.231 200.046 413.256 200.233 413.281 200.418C413.254 200.22 413.228 200.019 413.206 199.816L413.21 199.857Z" fill="black"/>
<path d="M494.6 236.457H464.266V64.373H494.6V236.457Z" fill="black"/>
<path d="M494.6 36.5117H464.266V0H494.6V36.5117Z" fill="black"/>
</svg>
