<svg width="945" height="499" viewBox="0 0 945 499" fill="none" xmlns="http://www.w3.org/2000/svg">
<path d="M839.064 487.716C816.09 487.716 798.208 482.623 785.421 472.436C772.849 462.032 765.914 447.294 764.613 428.22H791.598C794.632 453.146 810.671 465.609 839.715 465.609C852.936 465.609 862.69 463.116 868.975 458.131C875.477 452.929 878.729 446.21 878.729 437.974C878.729 429.087 875.586 422.694 869.3 418.792C863.015 414.891 851.527 411.206 834.838 407.738C827.902 406.221 822.375 405.029 818.257 404.162C814.356 403.078 809.587 401.669 803.952 399.935C798.317 397.985 793.874 395.926 790.622 393.758C787.588 391.374 784.445 388.556 781.194 385.305C777.943 382.054 775.559 378.044 774.042 373.276C772.741 368.508 772.091 363.198 772.091 357.345C772.091 343.04 777.293 331.77 787.696 323.534C798.317 315.297 813.272 311.179 832.562 311.179C872.443 311.179 894.442 328.735 898.56 363.848H871.576C870.276 352.794 866.482 344.774 860.197 339.789C853.911 334.587 844.483 331.987 831.912 331.987C820.425 331.987 811.863 334.262 806.228 338.814C800.809 343.149 798.1 348.893 798.1 356.045C798.1 364.281 801.351 370.133 807.853 373.601C814.356 376.852 826.168 380.212 843.291 383.68C853.695 385.847 861.823 387.906 867.675 389.857C873.743 391.591 880.029 394.409 886.531 398.31C893.033 401.995 897.802 406.98 900.836 413.265C903.871 419.551 905.388 427.354 905.388 436.673C905.388 453.146 899.319 465.825 887.181 474.712C875.044 483.382 859.005 487.716 839.064 487.716Z" fill="#050A26"/>
<path d="M738.08 482.457L678.584 391.75L653.875 415.158V482.457H627.541V250H653.875V386.223L727.676 314.373H761.163L696.79 374.844L768.966 482.457H738.08Z" fill="#050A26"/>
<path d="M548.938 314.755V342.715H549.588C555.007 333.829 562.051 326.676 570.72 321.258C579.39 315.622 589.035 312.805 599.656 312.805C603.557 312.805 607.133 313.455 610.384 314.755V340.114H609.409C606.158 339.031 602.257 338.489 597.705 338.489C584.267 338.489 572.779 343.257 563.243 352.794C553.706 362.114 548.938 374.36 548.938 389.532V482.84H522.604V314.755H548.938Z" fill="#050A26"/>
<path d="M480.734 462.033C465.995 478.939 446.38 487.392 421.888 487.392C397.396 487.392 377.672 478.939 362.717 462.033C347.979 445.127 340.609 424.103 340.609 398.96C340.609 373.818 347.979 352.794 362.717 335.888C377.672 318.982 397.396 310.529 421.888 310.529C446.38 310.529 465.995 318.982 480.734 335.888C495.472 352.794 502.842 373.818 502.842 398.96C502.842 424.103 495.472 445.127 480.734 462.033ZM381.574 446.752C391.11 459.107 404.549 465.284 421.888 465.284C439.227 465.284 452.557 459.107 461.877 446.752C471.197 434.181 475.857 418.251 475.857 398.96C475.857 379.454 471.089 363.523 461.552 351.169C452.232 338.598 439.011 332.312 421.888 332.312C404.549 332.312 391.11 338.598 381.574 351.169C372.254 363.74 367.594 379.67 367.594 398.96C367.594 418.251 372.254 434.181 381.574 446.752Z" fill="#050A26"/>
<path d="M62.2266 250L122.373 482.457H151.633L197.149 318.599C199.75 309.496 202.676 297.683 205.927 283.162H206.577L215.03 318.599L257.621 482.457H285.58L332.281 314.663H304.145L282.004 401.178C279.62 410.715 276.585 423.828 272.901 440.517H272.251L262.822 400.528L222.183 250H190.647L148.707 400.528C145.889 410.715 142.638 424.045 138.954 440.517H138.303L129.525 401.178L92.7873 250H62.2266Z" fill="#050A26"/>
<path d="M772.023 255.009C747.097 255.009 727.265 246.664 712.527 229.975C698.005 213.069 690.744 191.937 690.744 166.578C690.744 141.652 698.113 120.736 712.852 103.831C727.807 86.7078 746.989 78.1465 770.397 78.1465C795.106 78.1465 814.179 86.8162 827.617 104.156C841.056 121.278 847.775 144.145 847.775 172.755H717.729C718.812 190.528 724.014 205.05 733.334 216.32C742.871 227.374 755.767 232.901 772.023 232.901C797.165 232.901 812.662 221.414 818.514 198.439H844.198C840.297 216.429 832.061 230.409 819.49 240.379C806.918 250.132 791.096 255.009 772.023 255.009ZM805.51 113.259C797.057 103.722 785.353 98.9538 770.397 98.9538C755.442 98.9538 743.521 103.939 734.635 113.909C725.965 123.879 720.546 136.884 718.379 152.923H819.49C818.623 136.017 813.963 122.796 805.51 113.259Z" fill="#050A26"/>
<path d="M601.604 250.457L542.758 82.3726H571.043L605.83 189.01L616.884 224.448H617.534C621.652 210.576 625.337 198.764 628.588 189.01L664.026 82.3726H691.335L630.864 250.457H601.604Z" fill="#050A26"/>
<path d="M504.266 250.457V82.3727H530.6V250.457H504.266ZM504.266 50.5115V18H530.6V50.5115H504.266Z" fill="#050A26"/>
<path d="M400.344 103.83V82.3726H424.727V29.3789H451.062V82.3726H483.573V103.83H451.062V213.069C451.062 223.472 456.697 228.674 467.968 228.674C472.736 228.674 477.396 227.916 481.948 226.398H482.923V249.156C475.77 250.674 468.726 251.432 461.79 251.432C437.082 251.432 424.727 240.595 424.727 218.921V103.83H400.344Z" fill="#050A26"/>
<path d="M387.015 252.082C370.325 252.082 360.68 243.737 358.079 227.048H357.754C343.883 244.821 325.243 253.708 301.835 253.708C285.145 253.708 271.49 249.698 260.87 241.678C250.25 233.659 244.939 222.063 244.939 206.891C244.939 199.088 246.132 192.369 248.516 186.734C251.117 180.882 254.368 176.222 258.269 172.754C262.171 169.069 267.481 165.927 274.2 163.326C281.136 160.508 287.746 158.449 294.032 157.149C300.317 155.631 308.337 154.114 318.09 152.597C324.376 151.73 328.819 151.08 331.42 150.646C334.238 149.996 337.814 149.129 342.149 148.045C346.484 146.745 349.518 145.336 351.252 143.819C352.986 142.302 354.611 140.243 356.129 137.642C357.646 135.041 358.404 132.006 358.404 128.539C358.404 119.002 355.045 111.741 348.326 106.756C341.824 101.554 332.612 98.9531 320.691 98.9531C293.598 98.9531 279.618 111.307 278.751 136.016H253.392C253.826 118.893 259.678 105.13 270.949 94.7266C282.436 84.3229 298.908 79.1211 320.366 79.1211C361.764 79.1211 382.463 96.894 382.463 132.44V212.418C382.463 219.787 383.655 224.989 386.039 228.024C388.64 231.058 393.409 231.817 400.344 230.299H401.32V249.481C396.985 251.215 392.216 252.082 387.015 252.082ZM307.687 233.551C323.942 233.551 336.513 228.891 345.4 219.571C354.286 210.034 358.73 199.63 358.73 188.36V159.75C350.71 164.735 337.922 168.853 320.366 172.104C313.864 173.404 308.77 174.488 305.086 175.355C301.401 176.005 297.175 177.306 292.406 179.256C287.638 180.99 284.062 182.941 281.677 185.108C279.293 187.276 277.234 190.202 275.5 193.887C273.766 197.354 272.899 201.473 272.899 206.241C272.899 224.447 284.495 233.551 307.687 233.551Z" fill="#050A26"/>
<path d="M40 250.457V18H70.8859L176.873 179.582L193.779 209.493H194.429V18H221.739V250.457H191.829L85.1909 88.5499L67.9599 59.6147H67.3096V250.457H40Z" fill="#050A26"/>
<path d="M72 448.334C72 446.025 72 444.87 71.5487 444.002C71.2152 443.359 70.716 442.831 70.1093 442.478C69.2885 442 68.198 442 66.0169 442H45.9831C43.802 442 42.7115 442 41.8907 442.478C41.284 442.831 40.7848 443.359 40.4513 444.002C40 444.87 40 446.025 40 448.334V475.666C40 477.975 40 479.13 40.4513 479.998C40.7848 480.641 41.284 481.169 41.8907 481.522C42.7115 482 43.802 482 45.9831 482H66.0169C68.198 482 69.2885 482 70.1093 481.522C70.716 481.169 71.2152 480.641 71.5487 479.998C72 479.13 72 477.975 72 475.666V448.334Z" fill="#050A26"/>
</svg>
